<?xml version="1.0" encoding="UTF-8"?>
<svg width="2380px" height="2380px" viewBox="0 0 2380 2380" enable-background="new 0 0 4000 4000" version="1.1" xmlns="http://www.w3.org/2000/svg" xmlns:xlink="http://www.w3.org/1999/xlink">
    <!-- Generator: Sketch 47.1 (45422) - http://www.bohemiancoding.com/sketch -->
    <title>Chart</title>
    <desc>Created with Sketch.</desc>
    <defs></defs>
    <g id="Page-1" stroke="none" stroke-width="1" fill="none" fill-rule="evenodd">
        <g id="Chart" fill="#000000">
            <path d="M1803.6045,632.718436 L1070.2758,1392.10253 L1070.40401,1392.22633 L1028.72451,1435.38672 L678.285993,1096.97218 L277.30301,1497.95516 L234.876603,1455.52876 L635.11903,1055.28633 L634.938405,1055.1119 L676.617908,1011.95151 L677.5519,1012.85346 L678.550808,1011.85455 L720.977215,1054.28096 L720.718862,1054.53931 L1027.11542,1350.42302 L1799.38229,550.717263 L1799.42551,550.759001 L1801.40926,548.631695 L1990.88177,725.31767 L2211.30116,488.946809 L2255.18238,529.866711 L1993.96235,809.990905 L1990.77249,807.016318 L1990.65324,807.144206 L1803.6045,632.718436 Z M120,2251 L62,2251 L62,129 L122,129 L122,2191 L2318,2191 L2318,2251 L120,2251 Z" id="AXIS"></path>
        </g>
    </g>
</svg>