<?xml version="1.0" encoding="UTF-8"?>
<svg width="400px" height="400px" viewBox="0 0 400 400" enable-background="new 0 0 400 400" version="1.1" xmlns="http://www.w3.org/2000/svg" xmlns:xlink="http://www.w3.org/1999/xlink">
    <!-- Generator: Sketch 47.1 (45422) - http://www.bohemiancoding.com/sketch -->
    <title>deal</title>
    <desc>Created with Sketch.</desc>
    <defs></defs>
    <g id="Page-1" stroke="none" stroke-width="1" fill="none" fill-rule="evenodd">
        <g id="deal" fill="#000000">
            <path d="M36,210 C55.3333333,189 67.1666667,176.5 71.5,172.5 C78,166.5 87.6641549,164.647354 98.5,170 C102.467328,171.959764 106.452239,175.988404 109.5,181 C110.853139,183.225038 112.019806,187.225038 113,193 C121.666667,193.333333 128.833333,196.5 134.5,202.5 C140.166667,208.5 142,216.666667 140,227 C146.637968,229.548764 151.804634,233.048764 155.5,237.5 C159.195366,241.951236 161.362032,247.284569 162,253.5 C173.093497,254.764547 180.760163,258.431214 185,264.5 C191.359755,273.603179 189.5,286 187.5,290 C186.166667,292.666667 183,296.5 178,301.5 C170.666667,309.833333 165.333333,315.166667 162,317.5 C157,321 155.558272,321.595651 152,322 C148.441728,322.404349 145.793556,322.370091 140,320 C134.206444,317.629909 132.224288,315.389396 129.5,312.5 C127.683808,310.573736 125.683808,307.240403 123.5,302.5 C114.075996,305.699793 106.075996,305.86646 99.5,303 C92.924004,300.13354 87.924004,294.300207 84.5,285.5 C72.8333333,288.166667 63.3333333,285.666667 56,278 C48.6666667,270.333333 47.1666667,261 51.5,250 C43.7028426,246.631073 38.2028426,242.464406 35,237.5 C31.7971574,232.535594 30.6304907,226.368927 31.5,219 C31.8766171,216.913432 32.3766171,215.246766 33,214 C33.6233829,212.753234 34.6233829,211.419901 36,210 Z M308.506384,209.492818 C295.453316,197.723467 286.284521,189.559195 281,185 C272.098085,177.319916 268.943272,174.782635 262.5,170 C258.204485,166.811577 248.204485,159.811577 232.5,149 C228.5,146.333333 224.333333,145 220,145 C215.666667,145 211.666667,146.333333 208,149 C203.098116,152.299967 199.43145,154.466634 197,155.5 C194.56855,156.533366 191.56855,157.366699 188,158 C177.666667,159 169.5,155.166667 163.5,146.5 C157.5,137.833333 156.666667,128.833333 161,119.5 C162.466447,117.366886 163.633114,115.866886 164.5,115 C165.366886,114.133114 166.533553,113.29978 168,112.5 L187.939957,98.4577767 C184.766621,96.2293505 181.953302,94.7434248 179.5,94 C177.031236,93.2518897 174.031236,92.9185563 170.5,93 C166.915058,92.7561571 163.581725,93.0894904 160.5,94 C156.248391,95.2561571 152.248391,97.0894904 148.5,99.5 L136,104.5 C131.166667,106.5 126.166667,107.5 121,107.5 C115.833333,107.5 110.166667,106.5 104,104.5 L86,96.5 C81.3840246,94.4461085 77.2173579,93.6127752 73.5,94 C69.7826421,94.3872248 65.9493087,96.2205581 62,99.5 L27.5,139.5 C25.8333333,141.166667 25,143.333333 25,146 C25,148.666667 25.8333333,151 27.5,153 L62,182 L53,191.5 C31.6666667,173.833333 19.6666667,163.166667 17,159.5 C13,154 12,153.5 12,146 C12,141 14.3333333,135.666667 19,130 L24,124.5 L48.5,96.5 C51.4789802,92.8480472 54.6456469,89.8480472 58,87.5 C61.3543531,85.1519528 64.8543531,83.4852862 68.5,82.5 C71.4874994,81.4987499 74.6541661,81.1654166 78,81.5 C81.3458339,81.8345834 84.8458339,82.8345834 88.5,84.5 L106.5,92 C111.166667,93.3333333 115.5,94 119.5,94 C123.5,94 127.833333,93.3333333 132.5,92 L138.5,90 L154,83.5 C160,81.5 165,80.5 169,80.5 C173,80.5 177.5,81.1666667 182.5,82.5 L199.968917,89.9866785 L203.5,87.5 C210.324946,83.749534 217.491612,82.0828674 225,82.5 C232.508388,82.9171326 240.341721,85.4171326 248.5,90 L268.5,99.5 C273.663605,100.833823 278.330272,101.167157 282.5,100.5 C286.669728,99.8328434 290.836395,97.9995101 295,95 L319,79.5 C323.833333,77.1666667 328.5,76 333,76 C337.5,76 342,77.1666667 346.5,79.5 C348.103083,80.6000443 349.436416,81.6000443 350.5,82.5 C351.563584,83.3999557 352.396917,84.2332891 353,85 L383.5,124 C387.077688,130.140594 388.577688,136.140594 388,142 C387.422312,147.859406 384.588979,153.69274 379.5,159.5 L331,213 L330.512658,213.487342 L337,219.5 C344.666667,229.166667 346,238.166667 341,246.5 C336,254.833333 329.333333,259.833333 321,261.5 C322.333333,270.5 319.666667,278.333333 313,285 C306.333333,291.666667 298.5,294.166667 289.5,292.5 C287.166667,299.5 283.833333,305.166667 279.5,309.5 C273,316 265,316.5 260.5,316 C256,315.5 253.753864,314.859351 250.5,313 C248.330758,311.760433 244.664091,308.760433 239.5,304 C236.449724,311.379465 232.449724,316.546132 227.5,319.5 C222.550276,322.453868 217.216942,323.787201 211.5,323.5 C207.509182,322.998913 204.509182,321.998913 202.5,320.5 C200.490818,319.001087 192.990818,312.001087 180,299.5 C182.411957,297.00041 184.078623,295.167077 185,294 C185.921377,292.832923 186.75471,291.49959 187.5,290 L208,308.5 C214,311.5 219.166667,310.5 223.5,305.5 C227.833333,300.5 228.833333,295.666667 226.5,291 L202.5,268.5 L211,259.5 L254.5,299.5 C261.166667,304.166667 267,303.833333 272,298.5 C277,293.166667 277.166667,287.5 272.5,281.5 L229,240.5 L237.5,231.5 L285,275.5 C293.333333,281.166667 299.833333,281 304.5,275 C309.166667,269 308.666667,263 303,257 L251.5,209 L260,200 L310.5,246.5 C313.833333,249.166667 316.833333,250.333333 319.5,250 C323.5,249.5 325.821265,245.682355 327.5,243.5 C332.5,237 332,232 329,228.5 C327.981132,227.311321 325.707903,225.08455 322.180313,221.819687 L322,222 L313.5,214 L313.525724,213.971172 L313.525669,213.971123 L313.5,214 C312.070815,212.708789 310.682058,211.4551 309.33373,210.238934 C309.058618,209.994939 308.780708,209.748627 308.5,209.5 L308.506384,209.492818 L308.506384,209.492818 Z M321.434621,205.073551 L321.451325,205.089033 L371.5,149 C374.166667,146.333333 375.333333,143.166667 375,139.5 C374.666667,135.833333 373.5,132.666667 371.5,130 C355.833333,108.666667 347,97 345,95 C342,92 341.5,91.5 337,89 C334,87.3333333 331,87.3333333 328,89 L306.5,102.5 C302.958144,105.104262 299.791477,107.104262 297,108.5 C292.812785,110.593608 292.813067,111.199171 288,112.5 C283.186933,113.800829 283.648892,113.242555 278.5,113.5 C275.067405,113.67163 271.734072,113.338296 268.5,112.5 C265.26178,111.473671 262.928446,110.640338 261.5,110 C260.071554,109.359662 252.73822,105.859662 239.5,99.5 C232.833333,95.8333333 227.166667,94 222.5,94 C217.833333,94 213,95.8333333 208,99.5 L174.5,123 C170.166667,127.333333 169.833333,132.333333 173.5,138 C177.166667,143.666667 182,146 188,145 C191.807672,143.800972 194.474338,142.800972 196,142 C197.525662,141.199028 201.525662,138.699028 208,134.5 C213.333333,132.166667 218.666667,131.333333 224,132 C229.333333,132.666667 235,135.166667 241,139.5 L278.060233,166.5 C287.438095,174.111793 294.418018,179.945126 299,184 C303.11324,187.640055 309.443693,193.519169 317.991358,201.637341 C318.640749,202.254102 319.810296,203.374988 321.5,205 L321.434621,205.073551 L321.434621,205.073551 Z M47.3359004,215.708645 C42.7321098,220.476009 42.8647128,228.072832 47.6320776,232.676623 L48.6875584,233.695889 C53.4549232,238.299679 61.0517458,238.167076 65.6555365,233.399711 L96.1486727,201.823144 C100.752463,197.05578 100.61986,189.458957 95.8524955,184.855166 L94.7970147,183.8359 C90.0296499,179.23211 82.4328273,179.364713 77.8290366,184.132078 L47.3359004,215.708645 Z M65.3359004,252.139449 C60.7321098,256.906813 60.8647128,264.503636 65.6320776,269.107427 L67.5931535,271.001216 C72.3605183,275.605006 79.9573409,275.472403 84.5611316,270.705038 L126.092867,227.697667 C130.696658,222.930303 130.564055,215.33348 125.79669,210.729689 L123.835614,208.8359 C119.068249,204.23211 111.471427,204.364713 106.867636,209.132078 L65.3359004,252.139449 Z M99.3359004,272.137617 C94.7321098,276.904981 94.8647128,284.501804 99.6320776,289.105595 L101.593154,290.999384 C106.360518,295.603174 113.957341,295.470571 118.561132,290.703206 L146.571455,261.697667 C151.175246,256.930303 151.042643,249.33348 146.275278,244.729689 L144.314202,242.8359 C139.546837,238.23211 131.950015,238.364713 127.346224,243.132078 L99.3359004,272.137617 Z M137.3359,288.137617 C132.73211,292.904981 132.864713,300.501804 137.632078,305.105595 L139.593154,306.999384 C144.360518,311.603174 151.957341,311.470571 156.561132,306.703206 L175.179198,287.423635 C179.782988,282.65627 179.650385,275.059447 174.88302,270.455657 L172.921945,268.561868 C168.15458,263.958077 160.557757,264.09068 155.953967,268.858045 L137.3359,288.137617 Z" id="Path-3"></path>
        </g>
    </g>
</svg>