<?xml version="1.0" encoding="UTF-8"?>
<svg width="400px" height="400px" viewBox="0 0 400 400" version="1.1" enable-background="new 0 0 400 400" xmlns="http://www.w3.org/2000/svg" xmlns:xlink="http://www.w3.org/1999/xlink">
    <!-- Generator: Sketch 47.1 (45422) - http://www.bohemiancoding.com/sketch -->
    <title>edit</title>
    <desc>Created with Sketch.</desc>
    <defs></defs>
    <g id="Page-1" stroke="none" stroke-width="1" fill="none" fill-rule="evenodd">
        <g id="edit" fill="#000000">
            <path d="M253,79.9756134 L219,112.566519 L68.5,112.566519 C60.4071303,112.988657 54.4071303,114.655324 50.5,117.566519 C46.5928697,120.477714 44.0928697,125.144381 43,131.566519 L43,294.066519 C43.3334858,306.650062 45.8334858,316.150062 50.5,322.566519 C55.1665142,328.982976 61.9998475,332.316309 71,332.566519 L231,332.566519 C244.232365,331.820947 253.232365,328.487614 258,322.566519 C262.767635,316.645424 264.267635,292.615122 262.5,250.475613 L294,219.975613 C297.633807,279.657248 295.133807,317.187549 286.5,332.566519 C277.866193,347.945488 263.199526,358.581853 242.5,364.475613 L68.5,364.475613 C53.3902583,361.896266 41.5569249,356.759901 33,349.066519 C20.1646126,337.526446 18.5,332.566519 14,313.566519 C9.5,294.566519 14,150.566519 14,131.566519 C14,129.269297 14.1200933,128.803188 14.2128036,127.713 C14.3545786,126.045855 14.5930665,124.08963 15.5,121.066519 C17.8584696,113.204954 21.3833393,105.889143 31,97.0665189 C37.052369,91.5138868 41.7025295,89.008466 46,87.0665189 C51.5387228,84.5636731 56.9230836,83.3581845 68.5,81.5665189 C82.2062631,79.4453115 143.706263,78.9150097 253,79.9756134 Z M126.334524,297.32233 L144.012193,232.975613 L190.681241,279.644661 L126.334524,297.32233 Z M154,222.882251 L303.906638,72.9756134 L350.547901,119.616877 L200.641263,269.523514 L154,222.882251 Z M317.014441,59.8678104 L340.417785,36.4644661 C342.370406,34.5118446 345.536231,34.5118446 347.488853,36.4644661 L387.059048,76.0346616 C389.01167,77.987283 389.01167,81.1531079 387.059048,83.1057294 L363.655704,106.509074 L317.014441,59.8678104 Z" id="Shape"></path>
        </g>
    </g>
</svg>