<?xml version="1.0" encoding="UTF-8"?>
<svg width="400px" height="400px" viewBox="0 0 400 400" enable-background="new 0 0 400 400" version="1.1" xmlns="http://www.w3.org/2000/svg" xmlns:xlink="http://www.w3.org/1999/xlink">
    <!-- Generator: Sketch 47.1 (45422) - http://www.bohemiancoding.com/sketch -->
    <title>exchange-settings-white</title>
    <desc>Created with Sketch.</desc>
    <defs></defs>
    <g id="Page-1" stroke="none" stroke-width="1" fill="none" fill-rule="evenodd">
        <g id="exchange-settings-white" fill="#FFFFFF">
            <path d="M263.001435,191.498565 C272.83283,195.058818 283.439721,197 294.5,197 C345.586339,197 387,155.586339 387,104.5 C387,103.55144 386.985722,102.606215 386.95737,101.664529 L311.152636,139.915393 L266,69.5 L345.027687,27.0069289 L345.027676,27.0069217 C330.502422,17.5167108 313.145459,12 294.5,12 C243.413661,12 202,53.4136606 202,104.5 C202,115.28454 203.845599,125.638018 207.238182,135.261818 L27.5,315 C23.1522871,319.143796 20.8189538,322.810462 20.5,326 C20.308913,327.91087 20.3853413,331.528765 21.5,334.5 C21.9972525,335.825477 23.1639192,337.65881 25,340 L60,375 C63.6666667,377.666667 67,378.833333 70,378.5 C73,378.166667 76.3333333,376.833333 80,374.5 L263.001435,191.498565 Z M16.5,60 L36.5,40 C40.1666667,37 43,35.6666667 45,36 C47,36.3333333 50.1666667,37.8333333 54.5,40.5 L97,68 C100.333333,70.5916201 102,73.7582867 102,77.5 C102,82.1669935 101.092465,87.1733319 102,91.5 C102.432087,93.5599718 103.76542,96.3933052 106,100 L155.5,149.5 L125.5,177.5 L78,131.5 C73.474309,128.126307 69.974309,126.126307 67.5,125.5 C62.3704853,124.201598 55.5974253,126.699142 50.5,125 C47.7856705,124.095223 45.4523371,122.428557 43.5,120 L15,75.5 C13,72.1666667 12.3333333,69.3333333 13,67 C13.6666667,64.6666667 14.8333333,62.3333333 16.5,60 Z M208.5,285.5 L265,226.5 L360,314.5 C366.333333,319.833333 369.333333,323.833333 369,326.5 C368.666667,329.166667 365.666667,333 360,338 L316.5,382 C312.39549,386.058806 309.228824,388.392139 307,389 C304.771176,389.607861 302.437843,388.774528 300,386.5 L208.5,285.5 Z" id="Oval-6"></path>
        </g>
    </g>
</svg>