<?xml version="1.0" encoding="UTF-8"?>
<svg width="400px" height="400px" viewBox="0 0 400 400" enable-background="new 0 0 400 400" version="1.1" xmlns="http://www.w3.org/2000/svg" xmlns:xlink="http://www.w3.org/1999/xlink">
    <!-- Generator: Sketch 47.1 (45422) - http://www.bohemiancoding.com/sketch -->
    <title>exchange-white</title>
    <desc>Created with Sketch.</desc>
    <defs></defs>
    <g id="Page-1" stroke="none" stroke-width="1" fill="none" fill-rule="evenodd">
        <g id="exchange-white" fill="#FFFFFF">
            <g id="Exchange-Grey" transform="translate(8.000000, 24.000000)">
                <path d="M258.022776,222 L241.022776,222 L241.022776,291 L258.022776,291 L258.022776,222 Z M289.022776,222 L272.022776,222 L272.022776,291 L289.022776,291 L289.022776,222 Z M320.022776,222 L303.022776,222 L303.022776,291 L320.022776,291 L320.022776,222 Z M341.022776,222 L335.022776,222 L335.022776,291 L341.022776,291 C347.097908,291 352.022776,286.075132 352.022776,280 L352.022776,233 C352.022776,226.924868 347.097908,222 341.022776,222 Z M125.022776,291.070467 L226.275709,291.070467 L226.275709,221.070467 L125.022776,221.070467 L125.022776,162 L0,258.783247 L125.022776,352 L125.022776,291.070467 L125.022776,291.070467 Z M126,60 L143,60 L143,129 L126,129 L126,60 Z M95,60 L112,60 L112,129 L95,129 L95,60 Z M64,60 L81,60 L81,129 L64,129 L64,60 Z M43,60 L49,60 L49,129 L43,129 C36.9248678,129 32,124.075132 32,118 L32,71 C32,64.9248678 36.9248678,60 43,60 Z M259,129.070467 L259,129.070467 L157.747067,129.070467 L157.747067,59.0704666 L259,59.0704666 L259,-5.1159077e-13 L384.022776,96.7832467 L259,190 L259,129.070467 Z" id="Left"></path>
            </g>
        </g>
    </g>
</svg>