<?xml version="1.0" encoding="UTF-8"?>
<svg width="400px" height="400px" viewBox="0 0 400 400" enable-background="new 0 0 400 400" version="1.1" xmlns="http://www.w3.org/2000/svg" xmlns:xlink="http://www.w3.org/1999/xlink">
    <!-- Generator: Sketch 47.1 (45422) - http://www.bohemiancoding.com/sketch -->
    <title>history</title>
    <desc>Created with Sketch.</desc>
    <defs></defs>
    <g id="Page-1" stroke="none" stroke-width="1" fill="none" fill-rule="evenodd">
        <g id="history" fill="#050505">
            <path d="M284.203579,318.059449 C260.46598,335.020146 231.39845,345 200,345 C119.918711,345 55,280.081289 55,200 C55,119.918711 119.918711,55 200,55 C280.081289,55 345,119.918711 345,200 C345,210.487911 343.886511,220.715753 341.771303,230.571756 L382.579961,230 C384.172177,220.235635 385,210.214492 385,200 C385,97.8273213 302.172679,15 200,15 C97.8273213,15 15,97.8273213 15,200 C15,302.172679 97.8273213,385 200,385 C240.436481,385 277.842884,372.026691 308.284014,350.015266 L330.879132,380 L379.547776,267.509426 L258,283.286125 L284.203579,318.059449 L284.203579,318.059449 Z M194.519413,189 L138,189 C134.134007,189 131,192.134007 131,196 L131,212 C131,215.865993 134.134007,219 138,219 L209,219 C209.52476,219 210.036034,218.942257 210.527814,218.832778 C213.751435,219.180584 216.887483,217.240199 217.929202,214.034118 L249.12809,118.013813 C250.322747,114.337035 248.310591,110.387956 244.633813,109.193299 L229.416909,104.249027 C225.740131,103.054369 221.791052,105.066525 220.596394,108.743304 L194.519413,189 Z" id="Oval-7-Copy"></path>
        </g>
    </g>
</svg>