<?xml version="1.0" encoding="UTF-8"?>
<svg width="400px" height="400px" viewBox="0 0 400 400" enable-background="new 0 0 400 400" version="1.1" xmlns="http://www.w3.org/2000/svg" xmlns:xlink="http://www.w3.org/1999/xlink">
    <!-- Generator: Sketch 47.1 (45422) - http://www.bohemiancoding.com/sketch -->
    <title>icon-plus</title>
    <desc>Created with Sketch.</desc>
    <defs></defs>
    <g id="Page-1" stroke="none" stroke-width="1" fill="none" fill-rule="evenodd">
        <g id="icon-plus" fill="#000000">
            <path d="M239.5,161 L239.5,6.95 C239.5,4.21619049 237.261424,2 234.5,2 L165.5,2 C162.738576,2 160.5,4.21619049 160.5,6.95 L160.5,161 L6.95,161 C4.21619049,161 2,163.238576 2,166 L2,235 C2,237.761424 4.21619049,240 6.95,240 L160.5,240 L160.5,393.05 C160.5,395.78381 162.738576,398 165.5,398 L234.5,398 C237.261424,398 239.5,395.78381 239.5,393.05 L239.5,240 L393.05,240 C395.78381,240 398,237.761424 398,235 L398,166 C398,163.238576 395.78381,161 393.05,161 L239.5,161 Z" id="Shape"></path>
        </g>
    </g>
</svg>