<?xml version="1.0" encoding="UTF-8"?>
<svg width="400px" height="400px" viewBox="0 0 400 400" enable-background="new 0 0 400 400" version="1.1" xmlns="http://www.w3.org/2000/svg" xmlns:xlink="http://www.w3.org/1999/xlink">
    <!-- Generator: Sketch 47.1 (45422) - http://www.bohemiancoding.com/sketch -->
    <title>icon-target</title>
    <desc>Created with Sketch.</desc>
    <defs></defs>
    <g id="Page-1" stroke="none" stroke-width="1" fill="none" fill-rule="evenodd">
        <g id="icon-target" fill="#000000">
            <path d="M192.013752,346.786751 C117.142684,342.778298 57.1503862,282.745222 53.2063887,207.857053 C52.7421842,207.950525 52.2579022,208 51.76,208 L12.24,208 C8.79374316,208 6,205.629743 6,202.705882 L6,198.294118 C6,195.370257 8.79374316,193 12.24,193 L51.76,193 C52.2404645,193 52.7082462,193.04607 53.1575427,193.133289 C56.6220206,117.789261 116.805595,57.2467383 192,53.2139861 L192,13.36 C192,9.84746899 194.370257,7 197.294118,7 L201.705882,7 C204.629743,7 207,9.84746899 207,13.36 L207,53.1637314 C282.615732,56.7086527 343.291307,117.384205 346.836265,192.999928 L386.7,193 C390.179394,193 393,195.370257 393,198.294118 L393,202.705882 C393,205.629743 390.179394,208 386.7,208 L346.8,208 C346.795337,208 346.790675,207.999996 346.786015,207.999987 C342.755453,283.153671 282.27631,343.31278 206.989124,346.836778 C206.996338,346.970091 207,347.104541 207,347.24 L207,386.76 C207,390.206257 204.629743,393 201.705882,393 L197.294118,393 C194.370257,393 192,390.206257 192,386.76 L192,347.24 C192,347.087579 192.004637,346.936434 192.013752,346.786751 Z M200.5,334 C274.230014,334 334,274.230014 334,200.5 C334,126.769986 274.230014,67 200.5,67 C126.769986,67 67,126.769986 67,200.5 C67,274.230014 126.769986,334 200.5,334 Z M200,272 C160.235498,272 128,239.764502 128,200 C128,160.235498 160.235498,128 200,128 C239.764502,128 272,160.235498 272,200 C272,239.764502 239.764502,272 200,272 Z M199.5,258 C231.256373,258 257,232.256373 257,200.5 C257,168.743627 231.256373,143 199.5,143 C167.743627,143 142,168.743627 142,200.5 C142,232.256373 167.743627,258 199.5,258 Z" id="Outer"></path>
        </g>
    </g>
</svg>