<?xml version="1.0" encoding="UTF-8"?>
<svg width="400px" height="400px" viewBox="0 0 400 400" enable-background="new 0 0 400 400" version="1.1" xmlns="http://www.w3.org/2000/svg" xmlns:xlink="http://www.w3.org/1999/xlink">
    <!-- Generator: Sketch 47.1 (45422) - http://www.bohemiancoding.com/sketch -->
    <title>icon-user-white</title>
    <desc>Created with Sketch.</desc>
    <defs></defs>
    <g id="Page-1" stroke="none" stroke-width="1" fill="none" fill-rule="evenodd">
        <g id="icon-user-white" fill="#FFFFFF">
            <path d="M259.004494,189.796027 L259.004494,245.5 L380.504494,307.5 C385.613722,311.225284 389.447056,315.725284 392.004494,321 C394.561932,326.274716 396.061932,332.774716 396.504494,340.5 L396.504494,381 C395.504494,386.333333 394.004494,389 392.004494,389 C390.004494,389 386.171161,389 380.504494,389 L11.5044939,389 C8.8938494,388.974295 6.8938494,388.307629 5.50449391,387 C4.11513842,385.692371 3.28180509,383.692371 3.00449391,381 L3.00449391,341.5 C2.9120656,333.69641 4.24539894,326.863077 7.00449391,321 C9.76358888,315.136923 13.7635889,310.636923 19.0044939,307.5 L140.504494,244 L140.504494,190.907313 C138.358467,188.368056 136.318629,185.690589 134.394148,182.886344 C121.679369,164.359084 114,140.297912 114,114 C114,83.1665224 120.105901,49.2565907 135.25,31.85 C150.394099,14.4434093 176.780755,8 199,8 C221.503574,8 246.235537,12.5131431 262.75,31.85 C279.264463,51.1868569 284,83.5210966 284,114 C284,141.592616 278.289775,163.866263 262.75,185.02 C261.547524,186.656888 260.298029,188.249901 259.004494,189.796027 Z" id="Path"></path>
        </g>
    </g>
</svg>