<?xml version="1.0" encoding="UTF-8"?>
<svg width="400px" height="400px" viewBox="0 0 400 400" enable-background="new 0 0 400 400" version="1.1" xmlns="http://www.w3.org/2000/svg" xmlns:xlink="http://www.w3.org/1999/xlink">
    <!-- Generator: Sketch 49.2 (51160) - http://www.bohemiancoding.com/sketch -->
    <title>icon-discovery-black</title>
    <desc>Created with Sketch.</desc>
    <defs></defs>
    <g id="icon-discovery-black" stroke="none" stroke-width="1" fill="none" fill-rule="evenodd">
        <path d="M80.6476059,80.6038564 C92.6022208,58.4269357 108.696998,47.3384753 128.931939,47.3384753 C159.28435,47.3384753 173.726426,68.8275179 177.216272,80.6038564 C179.542836,88.4547487 180.706118,104.251604 180.706118,127.994422 L219.318112,127.994422 C219.318112,102.626934 220.614821,86.8300782 223.208239,80.6038564 C227.098366,71.2645237 236.896845,49.3146532 268.354233,47.3384753 C299.811622,45.3622974 310.678077,65.7665445 317.837728,80.6038564 C322.610828,90.4953976 336.251782,143.970491 358.760588,241.029138 C365.926398,259.156257 368.860111,274.623703 367.561728,287.431477 C365.782343,304.984034 358.323594,320.01287 347.441306,330.61684 C333.215924,344.478405 319.795817,349.916971 300,352.668893 C270.794854,356.728856 235.651367,338.954114 223.208239,300 C219.154972,287.310954 217.986924,268.267316 219.704097,242.869085 L219.704097,220.818304 L180.706118,220.818304 L180.706118,241.029138 C180.730933,275.309899 179.567651,295.966853 177.216272,303 C172.092846,318.324543 160.747991,331.990353 146,341 C133.757832,348.478823 119.055578,352.668893 104.66952,352.668893 C73.2180256,352.668893 44.2069291,334.251063 34.4756808,300 C30.3764431,285.571918 32.6065809,265.323512 41.1660942,239.254782 L80.6476059,80.6038564 Z M106,339 C139.68937,339 167,311.68937 167,278 C167,244.31063 139.68937,217 106,217 C72.3106303,217 45,244.31063 45,278 C45,311.68937 72.3106303,339 106,339 Z M294,339 C327.68937,339 355,311.68937 355,278 C355,244.31063 327.68937,217 294,217 C260.31063,217 233,244.31063 233,278 C233,311.68937 260.31063,339 294,339 Z" id="Path-16" fill="#000000"></path>
    </g>
</svg>