<?xml version="1.0" encoding="UTF-8"?>
<svg width="400px" height="400px" viewBox="0 0 400 400" enable-background="new 0 0 400 400" version="1.1" xmlns="http://www.w3.org/2000/svg" xmlns:xlink="http://www.w3.org/1999/xlink">
    <!-- Generator: Sketch 48.2 (47327) - http://www.bohemiancoding.com/sketch -->
    <title>icon-package</title>
    <desc>Created with Sketch.</desc>
    <defs></defs>
    <g id="Page-1" stroke="none" stroke-width="1" fill="none" fill-rule="evenodd">
        <g id="icon-package" fill="#000000">
            <path d="M76.2823181,121 L192.041031,121 L192.041031,58 L124.161126,58 L76.2823181,121 Z M208.195424,58 L208.195424,121 L324.021793,121 L276.838236,58 L208.195424,58 Z M333.169322,137.541337 L67,137.541337 L67,336.992535 L333.169322,336.992535 L333.169322,137.541337 Z M51,126.039908 L114.86874,42 L285.461857,42 L348.403156,126.039908 L348.403156,353.731118 L51,353.731118 L51,126.039908 Z M149.681935,245.904764 L178.512113,274.677632 C180.141684,276.236659 182.107661,277.016172 184.410043,277.016172 C186.712426,277.016172 188.633975,276.236659 190.174691,274.677632 L249.482531,214.561249 C252.778892,210.796844 252.778892,207.20176 249.482531,203.775996 C246.186169,200.350232 241.841723,200.928571 236.44919,205.511012 L184.410043,257.283976 C170.220004,243.398146 162.876395,236.224803 162.379216,235.763949 C161.633449,235.072666 155.131,229.82565 150.313023,235.455231 C147.101038,239.208285 146.890675,242.691463 149.681935,245.904764 Z" id="Path-8"></path>
        </g>
    </g>
</svg>