<?xml version="1.0" encoding="UTF-8"?>
<svg width="400px" height="400px" viewBox="0 0 400 400" version="1.1" xmlns="http://www.w3.org/2000/svg" xmlns:xlink="http://www.w3.org/1999/xlink">
    <!-- Generator: Sketch 47.1 (45422) - http://www.bohemiancoding.com/sketch -->
    <title>asterisk</title>
    <desc>Created with Sketch.</desc>
    <defs></defs>
    <g id="Page-1" stroke="none" stroke-width="1" fill="none" fill-rule="evenodd">
        <g id="asterisk" fill="#000000">
            <path d="M296.568542,160 L390,160 C395.522847,160 400,164.477153 400,170 L400,230 C400,235.522847 395.522847,240 390,240 L296.568542,240 L362.63456,306.066017 C366.539803,309.97126 366.539803,316.30291 362.63456,320.208153 L320.208153,362.63456 C316.30291,366.539803 309.97126,366.539803 306.066017,362.63456 L240,296.568542 L240,390 C240,395.522847 235.522847,400 230,400 L170,400 C164.477153,400 160,395.522847 160,390 L160,296.568542 L93.9339828,362.63456 C90.0287399,366.539803 83.6970901,366.539803 79.7918472,362.63456 L37.3654403,320.208153 C33.4601974,316.30291 33.4601974,309.97126 37.3654403,306.066017 L103.431458,240 L10,240 C4.4771525,240 0,235.522847 0,230 L0,170 C0,164.477153 4.4771525,160 10,160 L103.431458,160 L37.3654403,93.9339828 C33.4601974,90.0287399 33.4601974,83.6970901 37.3654403,79.7918472 L79.7918472,37.3654403 C83.6970901,33.4601974 90.0287399,33.4601974 93.9339828,37.3654403 L160,103.431458 L160,10 C160,4.4771525 164.477153,1.01453063e-15 170,0 L230,0 C235.522847,-1.01453063e-15 240,4.4771525 240,10 L240,103.431458 L306.066017,37.3654403 C309.97126,33.4601974 316.30291,33.4601974 320.208153,37.3654403 L362.63456,79.7918472 C366.539803,83.6970901 366.539803,90.0287399 362.63456,93.9339828 L296.568542,160 Z" id="icon-asterisk"></path>
        </g>
    </g>
</svg>