<?xml version="1.0" encoding="UTF-8"?>
<svg width="400px" height="400px" viewBox="0 0 400 400" enable-background="new 0 0 400 400" version="1.1" xmlns="http://www.w3.org/2000/svg" xmlns:xlink="http://www.w3.org/1999/xlink">
    <!-- Generator: Sketch 47.1 (45422) - http://www.bohemiancoding.com/sketch -->
    <title>icon-link</title>
    <desc>Created with Sketch.</desc>
    <defs></defs>
    <g id="Page-1" stroke="none" stroke-width="1" fill="none" fill-rule="evenodd">
        <g id="icon-link" fill="#000000">
            <path d="M224.265745,125.009296 C268.883725,163.309757 293.519129,193.95444 298.171957,216.943344 C300.774246,229.80085 299.307831,247.711712 291,263.641876 C282.692169,279.572039 285.5,273.141876 278,284.141876 C273,291.475209 240.176097,323.637253 179.528292,380.628007 C172.832547,385.541283 167.323116,389.045906 163,391.141876 C153.235169,395.876143 137.626469,398.322165 132,398.141876 C122.63708,397.841859 111.878007,395.508525 99.7227805,391.141876 C92.5742602,388.141876 86.1666667,384.308542 80.5,379.641876 C76.9254617,376.698138 69.0431843,370.350079 59.5,360.641876 C53.1378771,354.16974 46.9712105,347.336407 41,340.141876 C27,319.606206 20,300.939539 20,284.141876 C20,267.344212 27,250.677546 41,234.141876 L78.5,196.641876 C82.1107717,206.22009 86.1107717,214.72009 90.5,222.141876 C94.8892283,229.563662 100.055895,236.563662 106,243.141876 L80.5,268.641876 C75.8333333,273.641876 73.5,279.141876 73.5,285.141876 C73.5,291.141876 75.1666667,297.141876 78.5,303.141876 C83.0436424,312.018851 88.0436424,319.185518 93.5,324.641876 C98.9563576,330.098233 106.456358,335.2649 116,340.141876 C122,343.475209 127.333333,345.475209 132,346.141876 C136.666667,346.808542 141.5,344.808542 146.5,340.141876 L240.5,246.641876 C244.166667,241.208053 246,236.208053 246,231.641876 C246,227.075699 244.166667,222.409032 240.5,217.641876 L187.5,162.141876 L224.265745,125.009296 Z M175.234255,274.141876 C130.616275,235.841415 105.980871,205.196732 101.328043,182.207827 C98.7257545,169.350322 100.192169,151.439459 108.5,135.509296 C116.807831,119.579133 114,126.009296 121.5,115.009296 C126.5,107.675963 159.323903,75.5139191 219.971708,18.5231651 C226.667453,13.6098884 232.176884,10.1052653 236.5,8.00929603 C246.264831,3.27502908 261.873531,0.829006435 267.5,1.00929603 C276.86292,1.30931317 287.621993,3.64264651 299.77722,8.00929603 C306.92574,11.009296 313.333333,14.8426294 319,19.509296 C322.574538,22.4530334 330.456816,28.8010931 340,38.509296 C346.362123,44.9814313 352.52879,51.8147646 358.5,59.009296 C372.5,79.5449659 379.5,98.2116326 379.5,115.009296 C379.5,131.806959 372.5,148.473626 358.5,165.009296 L321,202.509296 C317.389228,192.931082 313.389228,184.431082 309,177.009296 C304.610772,169.58751 299.444105,162.58751 293.5,156.009296 L319,130.509296 C323.666667,125.509296 326,120.009296 326,114.009296 C326,108.009296 324.333333,102.009296 321,96.009296 C316.456358,87.1323203 311.456358,79.9656536 306,74.509296 C300.543642,69.0529384 293.043642,63.8862718 283.5,59.009296 C277.5,55.6759627 272.166667,53.6759627 267.5,53.009296 C262.833333,52.3426294 258,54.3426294 253,59.009296 L159,152.509296 C155.333333,157.943119 153.5,162.943119 153.5,167.509296 C153.5,172.075473 155.333333,176.74214 159,181.509296 L212,237.009296 L175.234255,274.141876 Z" id="shape"></path>
        </g>
    </g>
</svg>