<?xml version="1.0" encoding="UTF-8"?>
<svg width="400px" height="400px" viewBox="0 0 400 400" enable-background="new 0 0 400 400" version="1.1" xmlns="http://www.w3.org/2000/svg" xmlns:xlink="http://www.w3.org/1999/xlink">
    <!-- Generator: Sketch 47.1 (45422) - http://www.bohemiancoding.com/sketch -->
    <title>icon-document</title>
    <desc>Created with Sketch.</desc>
    <defs></defs>
    <g id="Page-1" stroke="none" stroke-width="1" fill="none" fill-rule="evenodd">
        <g id="icon-document" fill="#000000">
            <path d="M120.72442,3 L320.1044,3 C337.522356,3 356.918632,8.96563213 356.918632,40.3023016 L356.918632,359.206915 C356.918632,375.218415 352.166057,383.930171 345.846505,389.568639 C341.130802,393.77611 336.118126,396.799354 328.455392,397.027592 C310.523762,397.561693 103.050661,397.027592 80.382045,397.027592 C57.7134286,397.027592 44.0335543,388.980736 44.0335543,359.206915 L44.0335543,100.483306 C44.0335543,83.8277974 43.118115,68.161243 50.8503697,51.9208192 C63.799259,24.7236489 88.4112434,3 120.72442,3 Z M64.9418538,97.6070161 L64.9418538,359.165201 C64.9418538,377.787514 70.2527837,375.77829 80.1478252,376.446918 C90.0428668,377.115547 306.273025,376.446918 320.694211,376.446918 C335.115397,376.446918 335.355062,371.990846 335.935194,359.165201 C336.515327,346.339555 335.935194,55.3131134 335.935194,39.4973158 C335.935194,23.6815183 330.193828,24.4694799 320.694211,23.7000508 C314.361134,23.187098 255.061228,23.187098 142.794495,23.7000508 L142.794495,97.6070161 L64.9418538,97.6070161 Z M65.2468894,76.6802827 L122.546331,76.6802827 L122.546331,23.4253254 C103.964184,25.6181572 90.3568939,31.550731 81.7244592,41.2230468 C73.0920246,50.8953626 67.5995013,62.7144413 65.2468894,76.6802827 Z M111.455392,146.497316 L292.455392,146.497316 L292.455392,156.497316 L111.455392,156.497316 L111.455392,146.497316 Z M111.455392,188.497316 L292.455392,188.497316 L292.455392,198.497316 L111.455392,198.497316 L111.455392,188.497316 Z M111.455392,226.497316 L292.455392,226.497316 L292.455392,236.497316 L111.455392,236.497316 L111.455392,226.497316 Z M111.455392,268.497316 L292.455392,268.497316 L292.455392,278.497316 L111.455392,278.497316 L111.455392,268.497316 Z M111.455392,306.497316 L292.455392,306.497316 L292.455392,316.497316 L111.455392,316.497316 L111.455392,306.497316 Z" id="Path-15"></path>
        </g>
    </g>
</svg>