<?xml version="1.0" encoding="UTF-8"?>
<svg width="400px" height="400px" viewBox="0 0 380 396" version="1.1" xmlns="http://www.w3.org/2000/svg" xmlns:xlink="http://www.w3.org/1999/xlink">
    <!-- Generator: Sketch 47.1 (45422) - http://www.bohemiancoding.com/sketch -->
    <title>icon-Calendar</title>
    <desc>Created with Sketch.</desc>
    <defs></defs>
    <g id="Page-1" stroke="none" stroke-width="1" fill="none" fill-rule="evenodd">
        <g id="calendar" transform="translate(-50.000000, -50.000000)" fill="#000000">
            <g id="icon-Calendar" transform="translate(50.000000, 50.000000)">
                <path d="M330,33 L365,33 C373.284271,33 380,39.7157288 380,48 L380,99 L0,99 L0,48 C-1.01453063e-15,39.7157288 6.71572875,33 15,33 L15,33 L50,33 L50,10 L50,10 C50,4.4771525 54.4771525,1.01453063e-15 60,0 L90,0 C95.5228475,-1.01453063e-15 100,4.4771525 100,10 L100,33 L280,33 L280,10 L280,10 C280,4.4771525 284.477153,1.01453063e-15 290,0 L320,0 C325.522847,-1.01453063e-15 330,4.4771525 330,10 L330,33 Z M0,116 L380,116 L380,381 L380,381 C380,389.284271 373.284271,396 365,396 L15,396 C6.71572875,396 2.79088747e-15,389.284271 1.77635684e-15,381 L0,116 Z M99,181 L99,232 L150,232 L150,181 L99,181 Z M166,181 L166,232 L217,232 L217,181 L166,181 Z M232,181 L232,232 L283,232 L283,181 L232,181 Z M299,181 L299,232 L350,232 L350,181 L299,181 Z M32,180 L32,231 L83,231 L83,180 L32,180 Z M99,248 L99,299 L150,299 L150,248 L99,248 Z M166,248 L166,299 L217,299 L217,248 L166,248 Z M232,248 L232,299 L283,299 L283,248 L232,248 Z M299,248 L299,299 L350,299 L350,248 L299,248 Z M32,247 L32,298 L83,298 L83,247 L32,247 Z M99,315 L99,366 L150,366 L150,315 L99,315 Z M166,315 L166,366 L217,366 L217,315 L166,315 Z M232,315 L232,366 L283,366 L283,315 L232,315 Z M299,315 L299,366 L350,366 L350,315 L299,315 Z M32,314 L32,365 L83,365 L83,314 L32,314 Z" id="Header"></path>
            </g>
        </g>
    </g>
</svg>