<?xml version="1.0" encoding="UTF-8"?>
<svg width="400px" height="400px" viewBox="0 0 400 400" enable-background="new 0 0 400 400" version="1.1" xmlns="http://www.w3.org/2000/svg" xmlns:xlink="http://www.w3.org/1999/xlink">
    <!-- Generator: Sketch 49.3 (51167) - http://www.bohemiancoding.com/sketch -->
    <title>icon-cog-white</title>
    <desc>Created with Sketch.</desc>
    <defs></defs>
    <g id="icon-cog-white" stroke="none" stroke-width="1" fill="none" fill-rule="evenodd">
        <path d="M327.64143,131.146703 C332.567028,140.258652 336.545396,149.957786 339.444568,160.112137 L396.071574,174.395699 C397.341999,183.290945 397.977211,191.825712 397.977211,200 C397.977211,208.174288 397.341999,216.49601 396.071574,224.965166 L339.446105,239.882479 C333.630781,260.253655 323.472118,278.792892 310.03557,294.434736 C316.762421,286.69501 322.606745,278.216765 327.568542,269 L357.744943,319.534993 C352.35338,326.723208 346.767551,333.207363 340.987457,338.987457 C335.207363,344.767551 328.873854,350.202734 321.98693,355.293007 L271.773119,326.019257 C261.822642,331.69868 251.13446,336.233548 239.887863,339.444568 L225.604301,396.071574 C216.709055,397.341999 208.174288,397.977211 200,397.977211 C191.825712,397.977211 183.50399,397.341999 175.034834,396.071574 L160.117521,339.446105 C149.40344,336.387575 139.196102,332.127607 129.650516,326.821207 L79.6008707,356.707788 C72.412656,351.316225 65.9285015,345.730396 60.1484072,339.950302 C54.3683128,334.170207 48.9331296,327.836699 43.8428576,320.949775 L73.2584701,270.492623 C67.9160985,260.907889 63.6294417,250.654255 60.5557487,239.888971 L3.90563653,224.965166 C2.63521218,216.49601 2,208.174288 2,200 C2,191.825712 2.63521218,183.290945 3.90563653,174.395699 L60.5571924,160.105945 C63.6297085,149.34631 67.9139166,139.097834 73.2528178,129.517518 L43.5267847,79.7367348 C48.9183481,72.5485201 54.5041769,66.0643656 60.2842712,60.2842712 C66.0643656,54.5041769 72.3978744,49.0689937 79.2847978,43.9787217 L129.508155,73.2580362 C139.25411,67.8258815 149.691647,63.4852518 160.655449,60.4014637 L174.395699,5.92842571 C183.290945,4.65800136 191.825712,4.02278919 200,4.02278919 C208.174288,4.02278919 216.49601,4.65800136 224.965166,5.92842571 L239.313118,60.3926265 C250.854649,63.6360865 261.813269,68.2722516 271.996185,74.108325 L321.534993,44.5267847 C328.723208,49.9183481 335.207363,55.5041769 340.987457,61.2842712 C346.767551,67.0643656 352.202734,73.3978744 357.293007,80.2847978 L327.64143,131.146703 Z M200,270 C238.659932,270 270,238.659932 270,200 C270,161.340068 238.659932,130 200,130 C161.340068,130 130,161.340068 130,200 C130,238.659932 161.340068,270 200,270 Z" id="Oval-2" fill="#FFFFFF"></path>
    </g>
</svg>