<?xml version="1.0" encoding="UTF-8"?>
<svg width="400px" height="400px" viewBox="0 0 400 400" version="1.1" xmlns="http://www.w3.org/2000/svg" xmlns:xlink="http://www.w3.org/1999/xlink">
    <!-- Generator: Sketch 47.1 (45422) - http://www.bohemiancoding.com/sketch -->
    <title>icon-action new</title>
    <desc>Created with Sketch.</desc>
    <defs></defs>
    <g id="Page-1" stroke="none" stroke-width="1" fill="none" fill-rule="evenodd">
        <g id="icon-action-new" fill="#000000">
            <path d="M147.03602,89.5 L56.5360203,89.5 C46.4216611,92.1868924 39.4216611,94.5202257 35.5360203,96.5 C23.3324793,102.717831 16.4288538,110.086347 15.5360203,111.5 C12.5223775,116.271601 7.98723698,123.529911 5.03602033,131 C2.11152417,138.402454 0.755898117,146.018045 1.03602033,150.5 C1.36935367,155.833333 1.36935367,209.166667 1.03602033,310.5 C2.702687,320.833333 4.86935367,327.666667 7.53602033,331 C11.3911029,335.818853 13.3248585,347.19806 26.0360203,356.5 C34.5101282,362.701293 44.6767949,366.86796 56.5360203,369 L216.03602,369 C239.03602,370.333333 256.202687,362.166667 267.53602,344.5 C278.869354,326.833333 283.03602,306.166667 280.03602,282.5 L250.03602,302 L250.03602,323.5 C249.273411,329.489075 245.940078,333.655742 240.03602,336 C234.131963,338.344258 226.131963,339.177591 216.03602,338.5 L56.5360203,338.5 C51.7818313,338.773 48.4484979,338.773 46.5360203,338.5 C41.0456916,337.716274 37.2875214,335.378753 35.5360203,331 C32.8693537,324.333333 31.8693537,317.5 32.5360203,310.5 L32.5360203,150.5 C30.7719345,139.361944 31.7719345,131.361944 35.5360203,126.5 C39.3001061,121.638056 46.3001061,119.638056 56.5360203,120.5 L96.5360203,120.5 C104.007298,114.068787 112.007298,108.235453 120.53602,103 C129.064743,97.7645467 137.898076,93.2645467 147.03602,89.5 Z M235.53602,195.983699 C229.023246,195.927811 202.450049,195.852876 178.53602,198 C160.446897,199.624134 143.964414,203.927961 138.53602,205.5 C130.192804,207.916158 119.734111,210.930841 110.53602,216 C104.653818,219.24174 98.1304181,223.997442 94.0360203,227 C90.6276473,229.499474 82.6618354,234.875429 75.5360203,244.5 C73.3176325,247.496293 70.4842992,252.996293 67.0360203,261 C68.0549922,237.220732 70.0549922,220.554066 73.0360203,211 C81.4326238,184.08925 97.3754442,165.415715 107.53602,155 C126.5972,135.460182 158.793735,118.580995 184.03602,111 C201.663479,105.70596 215.142364,104.192913 226.03602,102.5 C228.152788,102.171047 231.319455,101.777302 235.53602,101.318766 L235.53602,31 L399.53602,151.5 L235.53602,272 L235.53602,195.983699 Z" id="Path-3" opacity="0.0729166667"></path>
            <path d="M234.5,196.472011 C207.516852,194.979524 182.183519,196.488854 158.5,201 C134.670251,205.539 114.670251,212.705667 98.5,222.5 C90.3850167,228.799616 83.7183501,234.966283 78.5,241 C73.2816499,247.033717 69.2816499,253.200384 66.5,259.5 C66.0076953,248.393318 66.8410286,237.226651 69,226 C71.1589714,214.773349 74.4923047,204.273349 79,194.5 C84.0256406,184.527871 90.5256406,174.861205 98.5,165.5 C106.474359,156.138795 115.307693,147.805462 125,140.5 C138.614357,130.233698 154.44769,121.900364 172.5,115.5 C190.424793,109.144846 211.09146,104.498984 234.5,101.562413 L234.5,31 L398.5,150.5 L234.5,270 L234.5,196.472011 Z M146.5,90 C134.210174,95.0336994 123.876841,100.200366 115.5,105.5 C107.123159,110.799634 101.123159,115.966301 97.5,121 L58.5,121 C50.4071303,121.422138 44.4071303,123.088805 40.5,126 C36.5928697,128.911195 34.0928697,133.577862 33,140 L33,302.5 C33.3334858,315.083543 35.8334858,324.583543 40.5,331 C45.1665142,337.416457 51.9998475,340.74979 61,341 L221,341 C234.232365,340.254428 243.232365,336.921095 248,331 C252.767635,325.078905 254.100968,315.578905 252,302.5 L280.5,284.5 C283.133807,306.787697 280.133807,325.621031 271.5,341 C262.866193,356.378969 249.866193,366.045636 232.5,370 L58.5,370 C43.3902583,369.360049 31.5569249,365.193382 23,357.5 C10.1646126,345.959927 8.5,341 4,322 C-0.5,303 4,159 4,140 C4,137.702778 4.1200933,137.236669 4.21280356,136.146481 C4.35457859,134.479336 4.59306655,132.523112 5.5,129.5 C7.85846955,121.638435 11.3833393,114.322625 21,105.5 C27.052369,99.9473679 31.7025295,97.441947 36,95.5 C41.5387228,92.9971541 46.9230836,91.7916656 58.5,90 C72.2062631,87.8787926 101.539596,87.8787926 146.5,90 Z" id="Path-5"></path>
        </g>
    </g>
</svg>