<?xml version="1.0" encoding="UTF-8"?>
<svg width="400px" height="400px" viewBox="0 0 400 400" enable-background="new 0 0 400 400" version="1.1" xmlns="http://www.w3.org/2000/svg" xmlns:xlink="http://www.w3.org/1999/xlink">
    <!-- Generator: Sketch 47.1 (45422) - http://www.bohemiancoding.com/sketch -->
    <title>icon-check-circle</title>
    <desc>Created with Sketch.</desc>
    <defs></defs>
    <g id="Page-1" stroke="none" stroke-width="1" fill="none" fill-rule="evenodd">
        <g id="icon-check-circle" fill="#000000">
            <path d="M200.5,385 C98.6034637,385 16,302.396536 16,200.5 C16,98.6034637 98.6034637,16 200.5,16 C302.396536,16 385,98.6034637 385,200.5 C385,302.396536 302.396536,385 200.5,385 Z M202,358 C288.156421,358 358,288.156421 358,202 C358,115.843579 288.156421,46 202,46 C115.843579,46 46,115.843579 46,202 C46,288.156421 115.843579,358 202,358 Z M90.5572163,206.579642 L122.557216,175.079642 C123.510701,174.137006 124.677367,173.803673 126.057216,174.079642 C127.437065,174.355612 128.770399,175.188946 130.057216,176.579642 L163.057216,210.579642 C165.057216,212.912976 167.057216,213.912976 169.057216,213.579642 C171.057216,213.246309 172.723883,212.246309 174.057216,210.579642 L270.057216,113.579642 C271.398105,112.161559 272.731438,111.328226 274.057216,111.079642 C275.382994,110.831059 276.716328,111.164392 278.057216,112.079642 C288.431736,122.454162 298.765069,132.787495 309.057216,143.079642 C310.057216,144.079642 311.057216,144.579642 310.557216,146.579642 C310.223883,147.912976 309.39055,149.246309 308.057216,150.579642 L174.057216,285.579642 C172.287291,287.579642 170.453957,288.579642 168.557216,288.579642 C166.660475,288.579642 164.827142,287.579642 163.057216,285.579642 L92.0572163,213.579642 C90.8810639,212.346575 90.2143972,211.179909 90.0572163,210.079642 C89.9000355,208.979376 90.0667021,207.81271 90.5572163,206.579642 Z" id="Oval-3"></path>
        </g>
    </g>
</svg>