<?xml version="1.0" encoding="UTF-8"?>
<svg width="400px" height="400px" viewBox="0 0 400 400" enable-background="new 0 0 400 400" version="1.1" xmlns="http://www.w3.org/2000/svg" xmlns:xlink="http://www.w3.org/1999/xlink">
    <!-- Generator: Sketch 49.3 (51167) - http://www.bohemiancoding.com/sketch -->
    <title>icon-package-filled</title>
    <desc>Created with Sketch.</desc>
    <defs></defs>
    <g id="icon-package-filled" stroke="none" stroke-width="1" fill="none" fill-rule="evenodd">
        <path d="M51,128.039908 L51,355.731118 L348.403156,355.731118 L348.403156,128.039908 L285.461857,44 L114.86874,44 L51,128.039908 Z M149.681935,247.904764 C146.890675,244.691463 147.101038,241.208285 150.313023,237.455231 C155.131,231.82565 161.633449,237.072666 162.379216,237.763949 C162.876395,238.224803 170.220004,245.398146 184.410043,259.283976 L236.44919,207.511012 C241.841723,202.928571 246.186169,202.350232 249.482531,205.775996 C252.778892,209.20176 252.778892,212.796844 249.482531,216.561249 L190.174691,276.677632 C188.633975,278.236659 186.712426,279.016172 184.410043,279.016172 C182.107661,279.016172 180.141684,278.236659 178.512113,276.677632 L149.681935,247.904764 Z M124.378411,60.989774 L191.879114,60.989774 L191.879114,122.969258 L77.2351215,122.969258 L124.378411,60.989774 Z M208.229848,60.0806798 L279.250283,60.0806798 L324.084732,123.811697 L208.229848,123.811697 L208.229848,60.0806798 Z" id="Path-8" fill="#526F7B"></path>
    </g>
</svg>