<?xml version="1.0" encoding="UTF-8"?>
<svg width="400px" height="400px" viewBox="0 0 400 400" enable-background="new 0 0 400 400" version="1.1" xmlns="http://www.w3.org/2000/svg" xmlns:xlink="http://www.w3.org/1999/xlink">
    <!-- Generator: Sketch 47.1 (45422) - http://www.bohemiancoding.com/sketch -->
    <title>icon-paperclip</title>
    <desc>Created with Sketch.</desc>
    <defs></defs>
    <g id="Page-1" stroke="none" stroke-width="1" fill="none" fill-rule="evenodd">
        <g id="icon-paperclip" fill="#000000">
            <path d="M94.6663691,346.935993 C94.6663691,340.45931 94.6663691,333.652459 94.6663691,326.515439 L94.6663691,106.120523 C94.6663691,100.936188 94.6663691,94.4784303 94.6663691,86.7472488 C94.6663691,86.3166671 94.9674572,79.7937028 95.2510312,77.9979892 C99.5586273,50.7204285 108.565637,27.8712317 135.245382,2.0652103 C161.693421,-23.5166931 186.26407,-24.2258437 209.504726,-24.3303167 C232.745382,-24.4347897 258.08408,-16.8911427 285.222175,10.6257926 C312.858231,38.6476401 319.05303,73.1063363 319.05303,86.7472488 C319.05303,95.8411905 319.05303,102.111888 319.05303,105.559341 L319.05303,325.024706 L288.074628,325.024706 L288.074628,105.559341 C288.074628,99.685969 288.074628,93.4152717 288.074628,86.7472488 C288.074628,81.7307594 283.944292,51.5043291 264.582561,32.7973801 C243.971058,12.8829245 228.308231,8.88015859 208.704168,8.19521518 C189.100105,7.51027177 166.752499,14.0645817 149.420223,31.4503327 C135.763028,45.1496636 128.304849,63.581969 127.045687,86.7472488 L125.621438,105.559341 L124.091544,325.024706 C124.05965,333.069448 124.569615,340.37321 125.621438,346.935993 C128.085184,362.308371 138.776178,394.009106 175.245382,393.551312 C209.503952,393.121267 225.462342,358.022219 225.462342,346.935993 C225.462342,339.948357 225.462342,332.644595 225.462342,325.024706 L225.462342,105.559341 L225.462342,86.7472488 C220.986504,75.6914677 214.785624,70.1234877 206.859699,70.0433089 C197.490796,69.9485329 191.266452,75.5165128 188.186665,86.7472488 L188.186665,105.559341 L186.45722,270.977202 L156.961439,270.977202 L156.961439,86.7472488 C160.075693,70.6821519 166.17034,59.1080666 175.245382,52.024993 C187.297015,42.6186888 198.11661,38.2488699 207.704168,38.9155366 C221.707103,40.8139938 232.844828,45.7807278 241.117343,53.8157384 C249.260013,61.7246319 254.537473,72.701802 256.949723,86.7472488 L256.949723,105.559341 C258.069646,178.791075 258.629607,251.946197 258.629607,325.024706 C258.629607,330.033776 258.069646,337.337539 256.949723,346.935993 C252.301497,370.767261 243.473413,389.143666 230.465473,402.06521 C211.08508,421.316882 188.186665,424.404825 175.245382,424.0208 C156.962953,423.478279 140.705004,420.81707 120.198336,402.06521 C98.4556297,382.183082 94.6663691,354.189264 94.6663691,346.935993 Z" id="Path-4" transform="translate(206.859699, 199.859699) rotate(45.000000) translate(-206.859699, -199.859699) "></path>
        </g>
    </g>
</svg>