<?xml version="1.0" encoding="UTF-8"?>
<svg width="400px" height="400px" viewBox="0 0 400 400" enable-background="new 0 0 400 400" version="1.1" xmlns="http://www.w3.org/2000/svg" xmlns:xlink="http://www.w3.org/1999/xlink">
    <!-- Generator: Sketch 47.1 (45422) - http://www.bohemiancoding.com/sketch -->
    <title>icon-magnifier</title>
    <desc>Created with Sketch.</desc>
    <defs></defs>
    <g id="Page-1" stroke="none" stroke-width="1" fill="none" fill-rule="evenodd">
        <g id="icon-magnifier" fill="#000000">
            <path d="M293.094273,242.272265 L398.040009,347.218001 L346.259423,398.998587 L241.323531,294.062695 C217.296884,308.868534 188.99839,317.409905 158.704952,317.409905 C71.6069122,317.409905 1,246.802993 1,159.704952 C1,72.6069122 71.6069122,2 158.704952,2 C245.802993,2 316.409905,72.6069122 316.409905,159.704952 C316.409905,189.976847 307.880678,218.256634 293.094273,242.272265 Z M158.704952,267.660708 C218.32727,267.660708 266.660708,219.32727 266.660708,159.704952 C266.660708,100.082635 218.32727,51.7491963 158.704952,51.7491963 C99.0826347,51.7491963 50.7491963,100.082635 50.7491963,159.704952 C50.7491963,219.32727 99.0826347,267.660708 158.704952,267.660708 Z" id="Shape"></path>
        </g>
    </g>
</svg>