<?xml version="1.0" encoding="UTF-8"?>
<svg width="400px" height="400px" viewBox="0 0 400 400" enable-background="new 0 0 400 400" version="1.1" xmlns="http://www.w3.org/2000/svg" xmlns:xlink="http://www.w3.org/1999/xlink">
    <!-- Generator: Sketch 47.1 (45422) - http://www.bohemiancoding.com/sketch -->
    <title>icon-check-green</title>
    <desc>Created with Sketch.</desc>
    <defs></defs>
    <g id="Page-1" stroke="none" stroke-width="1" fill="none" fill-rule="evenodd">
        <g id="icon-check-green" fill="#35D0A0">
            <path d="M3.99469499,212.620609 L61.11836,156.389501 C62.8204388,154.706787 64.9030724,154.111749 67.3662608,154.604386 C69.8294492,155.097024 72.2096019,156.584619 74.5067189,159.067173 L133.415498,219.761067 C136.985727,223.926334 140.555957,225.711448 144.126186,225.11641 C147.696415,224.521372 150.671606,222.736258 153.051758,219.761067 L324.422753,46.6049572 C326.816393,44.0735161 329.196546,42.5859206 331.563211,42.1421709 C333.929877,41.6984211 336.310029,42.2934593 338.703669,43.9272854 C357.223375,62.4469911 375.669559,80.8931746 394.04222,99.2658358 C395.827334,101.05095 397.612449,101.943508 396.719892,105.513737 C396.124853,107.893889 394.637258,110.274042 392.257105,112.654195 L153.051758,353.644656 C149.892238,357.214885 146.619529,359 143.233628,359 C139.847728,359 136.575018,357.214885 133.415498,353.644656 L6.67236678,225.11641 C4.57279995,222.915244 3.3827236,220.83261 3.10213772,218.868509 C2.82155185,216.904408 3.11907094,214.821775 3.99469499,212.620609 Z" id="Path-6"></path>
        </g>
    </g>
</svg>