<?xml version="1.0" encoding="UTF-8"?>
<svg width="400px" height="400px" viewBox="0 0 400 400" enable-background="new 0 0 400 400" version="1.1" xmlns="http://www.w3.org/2000/svg" xmlns:xlink="http://www.w3.org/1999/xlink">
    <!-- Generator: Sketch 47.1 (45422) - http://www.bohemiancoding.com/sketch -->
    <title>icon-remove</title>
    <desc>Created with Sketch.</desc>
    <defs></defs>
    <g id="Page-1" stroke="none" stroke-width="1" fill="none" fill-rule="evenodd">
        <g id="icon-remove" fill="#000000">
            <path d="M266.468037,201.414214 L395.267538,72.6147134 C397.552105,70.3301463 397.520647,66.5946733 395.197274,64.2713009 L337.142913,6.21693908 C334.81954,3.89356671 331.084067,3.86210883 328.7995,6.14667594 L200,134.946176 L71.2004998,6.14667594 C68.9159327,3.86210883 65.1804597,3.89356671 62.8570873,6.21693908 L4.80272552,64.2713009 C2.47935315,66.5946733 2.44789527,70.3301463 4.73246238,72.6147134 L133.531963,201.414214 L6.14667594,328.7995 C3.86210883,331.084067 3.89356671,334.81954 6.21693908,337.142913 L64.2713009,395.197274 C66.5946733,397.520647 70.3301463,397.552105 72.6147134,395.267538 L200,267.882251 L327.385287,395.267538 C329.669854,397.552105 333.405327,397.520647 335.728699,395.197274 L393.783061,337.142913 C396.106433,334.81954 396.137891,331.084067 393.853324,328.7995 L266.468037,201.414214 Z" id="Shape"></path>
        </g>
    </g>
</svg>