<?xml version="1.0" encoding="UTF-8"?>
<svg width="400px" height="400px" viewBox="0 0 400 400" enable-background="new 0 0 400 400" version="1.1" xmlns="http://www.w3.org/2000/svg" xmlns:xlink="http://www.w3.org/1999/xlink">
    <!-- Generator: Sketch 47.1 (45422) - http://www.bohemiancoding.com/sketch -->
    <title>plus-circle</title>
    <desc>Created with Sketch.</desc>
    <defs></defs>
    <g id="Page-1" stroke="none" stroke-width="1" fill="none" fill-rule="evenodd">
        <g id="plus-circle" fill="#000000">
            <path d="M200,390 C95.0658975,390 10,304.934102 10,200 C10,95.0658975 95.0658975,10 200,10 C304.934102,10 390,95.0658975 390,200 C390,304.934102 304.934102,390 200,390 Z M233,233 L282,233 C291.941125,233 300,224.941125 300,215 L300,185 C300,175.058875 291.941125,167 282,167 L233,167 L233,118 C233,108.058875 224.941125,100 215,100 L185,100 C175.058875,100 167,108.058875 167,118 L167,167 L118,167 C108.058875,167 100,175.058875 100,185 L100,215 C100,224.941125 108.058875,233 118,233 L167,233 L167,282 C167,291.941125 175.058875,300 185,300 L215,300 C224.941125,300 233,291.941125 233,282 L233,233 Z" id="Oval-5"></path>
        </g>
    </g>
</svg>