<?xml version="1.0" encoding="UTF-8"?>
<svg width="400px" height="400px" viewBox="0 0 400 400" enable-background="new 0 0 400 400" version="1.1" xmlns="http://www.w3.org/2000/svg" xmlns:xlink="http://www.w3.org/1999/xlink">
    <!-- Generator: Sketch 47.1 (45422) - http://www.bohemiancoding.com/sketch -->
    <title>private-deal 2</title>
    <desc>Created with Sketch.</desc>
    <defs></defs>
    <g id="Page-1" stroke="none" stroke-width="1" fill="none" fill-rule="evenodd">
        <g id="private-deal-2" fill="#000000">
            <path d="M179.556 348.9c-6.102 7.342-14.324 15.945-18.943 18.1-7.5 3.5-12 4.5-20.5 2-5.666-1.667-11.166-7.667-16.5-18-5.45 1.612-9.45 2.446-12 2.5-3.825.08-6 0-11.5-2-2.338-.85-6.94-3.488-10.5-8-1.347-1.708-3.014-4.875-5-9.5-10.333 2.333-19.5 0-27.5-7s-10-16.667-6-29c-9-3.355-15-8.688-18-16-4.5-10.968-2-17 3.5-24 4.74-6.033 10.635-12.66 16.3-18.665-18.664-15.315-29.597-24.593-32.8-27.835-4.82-4.88-6.534-8.17-7.5-13-.5-2.5-1.468-6.687 1-11.5 1.55-3.02 6.05-8.854 13.5-17.5 14.092-16.46 23.592-26.793 28.5-31 7.363-6.31 10.443-8 17-8 2.272 0 6.05-.44 11 1 3.052.888 9.218 3.22 18.5 7 7.937 2.722 13.937 4.055 18 4 4.064-.055 11.397-1.888 22-5.5 8.667-3.333 14.667-5.5 18-6.5 1.645-.493 5-1.5 12-1.5 4.667 0 12.667 2.5 24 7.5l3.5 1.5-11.5 9c-4.96-2.482-8.46-3.982-10.5-4.5-6.398-1.627-10.806-.786-13-.5-1.98.258-5.312 1.258-10 3-9.798 4.675-17.298 7.84-22.5 9.5-5.202 1.66-9.868 2.16-14 1.5-5.095-1.12-8.928-2.12-11.5-3-3.857-1.32-21.145-8.748-26.5-10-5.354-1.252-10 0-12 1-1.333.667-4 2.833-8 6.5l-21.5 25-11 13c-1.86 2.846-2.695 5.18-2.5 7 .195 1.82 1.53 3.987 4 6.5l32.966 27.97c5.198-5.097 10.52-9.925 12.783-10.97 1.494-.69 14.13-7.413 25.25 0 7 4.667 11.334 12.167 13 22.5 10 .667 17.334 4 22 10 4.667 6 6.334 14 5 24 6.334 2 11.5 5.667 15.5 11s6.167 10.5 6.5 15.5c10.667.667 18.334 4.167 23 10.5 7 9.5 4 21.5 2 26 9.557 9.297 15.557 14.964 18 17 3 2.5 6.348 3.417 10 3 2.51-.287 4.5-1 7-4 1.036-1.242 3.024-4.556 4.5-8 1.5-3.5 0-6-1-7-.666-.667-4.666-4.5-12-11.5l-12-11 8.5-9 23.5 21.5c9.956 9.467 15.956 14.967 18 16.5 2 1.5 5.195 4.31 9.433 5 3.067.5 5.067 0 7.567-2 1.09-.873 3.98-3.7 5.5-7 .802-1.742 1.5-3 1-5.5-.214-1.07-.865-3.422-3-6-1.192-1.44-2-2.5-5-5.5-2-2-15-14-39-36l8.5-9c21.223 19.827 34.556 32.16 40 37 4.5 4 8.428 8.142 14 10 3 1 6.5 1.5 8.5.5s6.86-4.102 7.5-10.5c.5-5-1-6.5-2.5-9-1-1.667-4.5-5.167-10.5-10.5l-43-40 8.5-9c28.164 26.634 44.33 41.468 48.5 44.5 5.5 4 6 4.5 10 5s8.5-3 11-6c1.155-1.386 3.106-4.452 2.5-10-.268-2.458-3-5-6-8l-3-3 8-9.5c3.632 3.728 6.132 6.56 7.5 8.5 2.053 2.908 3.5 5 4.5 8.5s2.5 11-4.5 20c-4.666 6-10.5 9.833-17.5 11.5.667 1.667.667 4.5 0 8.5-1 6-3.355 9.834-6 13-2.53 3.028-10.5 8-12 8.5s-3.574 1.255-7 1.5c-2.284.163-4.617-.004-7-.5-1.247 4.297-2.747 7.797-4.5 10.5-2.63 4.054-4.186 5.868-7 8-2.813 2.132-6.073 3.598-9.5 4.5-3.426.902-6.466.992-9.5.5-2.022-.328-4.855-1.495-8.5-3.5-2.546-1.715-4.38-3.048-5.5-4s-2.786-2.452-5-4.5c-.04 1.255-1.04 3.255-3 6-2.94 4.118-4.18 5.797-7 8-1.88 1.468-4.88 2.968-9 4.5-4 .667-7.666.833-11 .5-3.333-.333-6.5-2-9.5-5l-19.557-17.6zm-132.26-84.524c-4.52 4.847-4.253 12.44.594 16.96l1.624 1.515c4.847 4.52 12.44 4.255 16.96-.592l29.933-32.1c4.52-4.846 4.255-12.44-.592-16.96l-1.624-1.514c-4.846-4.52-12.44-4.255-16.96.592l-29.933 32.1zm18 36.403c-4.52 4.846-4.253 12.44.594 16.96l3.018 2.815c4.847 4.52 12.44 4.254 16.96-.593l41.5-44.503c4.52-4.848 4.255-12.44-.592-16.96l-3.02-2.816c-4.846-4.52-12.44-4.255-16.96.592l-41.5 44.503zm34 20.125c-4.52 4.847-4.253 12.44.594 16.96l3.018 2.815c4.847 4.52 12.44 4.255 16.96-.592l27.63-29.63c4.52-4.846 4.254-12.44-.593-16.96l-3.018-2.814c-4.847-4.52-12.44-4.255-16.96.592l-27.63 29.63zm36.88 16.38c-4.52 4.848-4.254 12.442.593 16.962l3.018 2.815c4.847 4.52 12.44 4.254 16.96-.593l19.245-20.64c4.52-4.845 4.255-12.44-.592-16.96l-3.018-2.814c-4.847-4.52-12.44-4.254-16.96.592l-19.245 20.638zM171.114 158.5l28-20c5.502-3.278 9.336-5.278 11.5-6 3-1 6.524-2.653 14.5-2 3.87.317 4.467.31 14 4 9.533 3.69 13.453 6.226 17 8 2 1 11.89 6.726 23 6.5 3.662-.075 9.33-2.24 17-6.5l17.5-11h36.004l12.496 15c6.334 7.333 11.667 14.167 16 20.5 2.737 4 9.72 12.517 9 22.5-.183 2.543-.982 6.353-3.5 11-.884 1.63-2.717 4.298-5.5 8l-56 62.5-16.5-14.5c-8.35-8.206-18.35-17.04-30-26.5-17.476-14.19-23.5-19.5-36.5-27.5-5.09-3.133-13.186-9.548-21.5-9-5.837.385-9.5 4-18.5 9-2.228 1.238-10.397 4.417-17.5 4-6.093-.358-9-1.5-16-8-9.944-9.234-9-22.5-6.5-28.5.85-2.036 3.943-5.05 6-7 1.323-1.254 3.323-2.754 6-4.5zm8 9c-6 4-9 7.667-9 11 0 5 .742 5.95 2 8 2.346 3.824 6.35 5.566 7 6 1.5 1 5.06 1.467 7.5 1 5.73-1.096 11.09-4.93 16-7.5 10.5-5.5 9.583-5.05 14-5.5 8.933-.91 16.7 2.985 22.5 7 13 9 31.588 22.043 44.5 32.5 8.608 6.97 20.942 18.138 37 33.5l49-55c2.304-2.887 3.637-5.054 4-6.5 1.226-4.882-.23-9.577-3-13.5-4-5.667-11.333-15.5-22-29.5-4.666-6.333-7.666-9.5-9-9.5h-16c-15.666 10.667-25.333 16.833-29 18.5-5.5 2.5-6.752 3.18-14.5 3.5-7.748.32-16.123-2.072-20-3.5-9.5-3.5-25.593-12.975-34.5-14.5-7.058-1.21-12.873.495-17 3-9.333 5.667-19.166 12.667-29.5 21zm116-100h75c1.657 0 3 1.343 3 3v55c0 1.657-1.343 3-3 3h-75c-1.657 0-3-1.343-3-3v-55c0-1.657 1.343-3 3-3zm58 0v-25c0-3.333-2-5-6-5h-27c-5.333-.167-8 1.5-8 5v25h-9.5v-25c0-12.5 10-14.5 13-14.5h34.5c10 0 13 9.25 13 14.5v25h-10z" id="Path-11"></path>
        </g>
    </g>
</svg>