<?xml version="1.0" encoding="UTF-8"?>
<svg width="400px" height="400px" viewBox="0 0 400 400" enable-background="new 0 0 400 400" version="1.1" xmlns="http://www.w3.org/2000/svg" xmlns:xlink="http://www.w3.org/1999/xlink">
    <!-- Generator: Sketch 47.1 (45422) - http://www.bohemiancoding.com/sketch -->
    <title>remove-circle</title>
    <desc>Created with Sketch.</desc>
    <defs></defs>
    <g id="Page-1" stroke="none" stroke-width="1" fill="none" fill-rule="evenodd">
        <g id="remove-circle" fill="#000000">
            <path d="M200,390 C95.0658975,390 10,304.934102 10,200 C10,95.0658975 95.0658975,10 200,10 C304.934102,10 390,95.0658975 390,200 C390,304.934102 304.934102,390 200,390 Z M245.547727,200.5 L289.741901,156.305826 C292.866095,153.181632 292.866095,148.116312 289.741901,144.992118 L256.507882,111.758099 C253.383688,108.633905 248.318368,108.633905 245.194174,111.758099 L201,155.952273 L156.805826,111.758099 C153.681632,108.633905 148.616312,108.633905 145.492118,111.758099 L112.258099,144.992118 C109.133905,148.116312 109.133905,153.181632 112.258099,156.305826 L156.452273,200.5 L112.258099,244.694174 C109.133905,247.818368 109.133905,252.883688 112.258099,256.007882 L145.492118,289.241901 C148.616312,292.366095 153.681632,292.366095 156.805826,289.241901 L201,245.047727 L245.194174,289.241901 C248.318368,292.366095 253.383688,292.366095 256.507882,289.241901 L289.741901,256.007882 C292.866095,252.883688 292.866095,247.818368 289.741901,244.694174 L245.547727,200.5 L245.547727,200.5 Z" id="Oval-5"></path>
        </g>
    </g>
</svg>